<?xml version="1.0" encoding="utf-8"?>
<!-- Generator: Adobe Illustrator 23.0.1, SVG Export Plug-In . SVG Version: 6.00 Build 0)  -->
<svg version="1.0" id="Layer_1" xmlns="http://www.w3.org/2000/svg" xmlns:xlink="http://www.w3.org/1999/xlink" x="0px" y="0px"
	 viewBox="0 0 250 250" enable-background="new 0 0 250 250" xml:space="preserve">
<g>
	<path d="M177.9,157.8c0,0,48.7-26.5,49-85.5l-20-4.4l18.1-15.7c0,0-10.2-36.6-45.3-52.2l-7,34.4l-25.7,16.2v5.2
		c0,5.1-1.3,7.1-5.3,8.1V49.8L125,35l-16.8,14.8v14.1c-4-1-5.3-2.9-5.3-8.1v-5.2L77.3,34.4L70.2,0C35.1,15.5,24.9,52.2,24.9,52.2
		L43,67.9l-20,4.4c0.4,59,49,85.5,49,85.5l15.2-38.3l15.7-6.1l0.1-4.5c0.2-5.8,5.2-5,5.2-5v12.7l8.3,4.7V178l-5.7,3.5
		c-0.1,0.9-0.1,1.2-0.2,2l5,4.2v40.9l-7.6,8.7l1.5,2.8h5.7l9.8,9.8l9.8-9.8h5.7l1.5-2.8l-7.6-8.7v-40.9l5-4.2
		c-0.1-0.9-0.1-1.2-0.2-2l-5.7-3.5v-56.6l8.3-4.7V104c0,0,5-0.8,5.2,5l0.1,4.5l15.7,6.1L177.9,157.8z M102.6,94.2l-14.7,6
		c-0.4-0.4-0.4-0.4-0.7-0.8l8.2-14.3l-8.1-17c-0.3-0.6,0.4-1.3,1-0.9l14.3,8V94.2z M147.4,94.2v-19l14.3-8c0.6-0.3,1.3,0.3,1,0.9
		l-8.1,17l8.2,14.3c-0.4,0.4-0.4,0.4-0.7,0.8L147.4,94.2z"/>
	<path d="M205.7,158.4c-8.5,10.3-37.2,46.8-45.3,57.1c0.6,1,0.6,1,1.2,2l19.7-4.1l0.4,18.1l31.5-37.9l-21.7,5.6l15.2-40.1
		C206.2,158.6,206.4,158.7,205.7,158.4z"/>
	<path d="M43.2,159l15.2,40.1l-21.7-5.6l31.5,37.9l0.4-18.1l19.7,4.1c0.6-1,0.6-1,1.2-2c-8.1-10.3-36.8-46.7-45.3-57.1
		C43.6,158.7,43.8,158.6,43.2,159z"/>
</g>
</svg>
