<?xml version="1.0" encoding="utf-8"?>
<!-- Generator: Adobe Illustrator 23.0.1, SVG Export Plug-In . SVG Version: 6.00 Build 0)  -->
<svg version="1.0" id="Layer_1" xmlns="http://www.w3.org/2000/svg" xmlns:xlink="http://www.w3.org/1999/xlink" x="0px" y="0px"
	 viewBox="0 0 250 250" enable-background="new 0 0 250 250" xml:space="preserve">
<g>
	<path d="M95.6,109.6c-5.2,13.6-21.1,66.4,22,111l6.1,29.3c1.5,0,1.1,0,2.6,0l6.1-29.3c43.1-44.6,27.2-97.4,22-111
		c0.7-0.3,0.5-0.3,1.2-0.6c50,56.3-11.5,111.6-11.5,111.6c67.8-35.2,78.8-80.7,78.8-80.7h-23.4c13.6-24.6,8.7-68.5,8.7-68.5
		l-31.7,1.2l-5.5,8.1C156.9,46.4,125,0,125,0S93.1,46.4,79,80.8l-5.5-8.1l-31.7-1.2c0,0-4.9,43.9,8.7,68.5H27.1
		c0,0,10.9,45.5,78.8,80.7c0,0-61.5-55.4-11.5-111.6C95.1,109.4,94.9,109.3,95.6,109.6z M117.6,104.5c0,0,4.9-21.5,6.8-40.6
		c0.8,0,0.5,0,1.3,0c1.9,19.1,6.8,40.6,6.8,40.6c14,56.8-7.4,103.4-7.4,103.4S103.6,161.3,117.6,104.5z"/>
	<path d="M49.7,58.3c0,0,5.3-27.5,39-48.6c1.4,1.5,1.1,1.2,2.5,2.7c-6.5,8.8-16.5,25.1-22.5,47.2L49.7,58.3z"/>
	<path d="M99.3,228.3c0,0-29.9,2.8-51.6-16.3c0,0-13.3-10.7-13.6-39C34.2,172.9,45.6,209.8,99.3,228.3z"/>
	<path d="M161.4,9.7c33.7,21.1,39,48.6,39,48.6l-19,1.3c-6-22.1-16-38.4-22.5-47.2C160.3,10.9,160,11.2,161.4,9.7z"/>
	<path d="M215.8,172.9c-0.3,28.3-13.6,39-13.6,39c-21.7,19.1-51.6,16.3-51.6,16.3C204.4,209.8,215.8,172.9,215.8,172.9z"/>
</g>
</svg>
