<?xml version="1.0" encoding="utf-8"?>
<!-- Generator: Adobe Illustrator 23.0.1, SVG Export Plug-In . SVG Version: 6.00 Build 0)  -->
<svg version="1.0" id="Layer_1" xmlns="http://www.w3.org/2000/svg" xmlns:xlink="http://www.w3.org/1999/xlink" x="0px" y="0px"
	 viewBox="0 0 250 250" enable-background="new 0 0 250 250" xml:space="preserve">
<g>
	<path d="M18.6,102.6c-2.7,9.5-4.1,19.4-4.1,29.7c0,22.2,6.6,42.9,17.9,60.2l11.2-11.2l9.2-9.2c-6.5-11.9-10.3-25.4-10.3-39.8
		c0-1.8,0.1-3.7,0.2-5.6l-0.2-0.2L18.6,102.6z"/>
	<path d="M119.1,50.2C121,50.1,123,50,125,50c1.9,0,3.7,0.1,5.7,0.2l24.1-24.1c-9.5-2.7-19.4-4.2-29.8-4.2s-20.4,1.5-30,4.2
		L119.1,50.2L119.1,50.2z"/>
	<path d="M78.7,132.4c0,4.2,0.6,8.2,1.7,12.2l12.2-12.2l-12.2-12.2C79.4,123.9,78.7,128.1,78.7,132.4z"/>
	<path d="M137.1,87.8c-3.8-1.1-7.9-1.7-12.2-1.7c-4.4,0-8.5,0.6-12.5,1.7l12.3,12.3L137.1,87.8z"/>
	<path d="M162.2,137.6l7.3,7.3c1.1-4,1.7-8.1,1.7-12.5c0-4.3-0.6-8.4-1.7-12.4l-12.5,12.5L162.2,137.6L162.2,137.6z"/>
	<path d="M112.5,176.8c4,1.1,8.1,1.7,12.4,1.7c4.3,0,8.3-0.6,12.3-1.7l-12.4-12.4L112.5,176.8z"/>
	<path d="M166,205.1l-1-1c-11.9,6.7-25.6,10.5-40.2,10.5c-14.5,0-28.1-3.7-39.9-10.4l-11.6,11.6l-8.9,8.9
		c17.4,11.3,38.1,18.1,60.4,18.1c22.3,0,43.2-6.7,60.6-18.2L166,205.3V205.1z"/>
	<path d="M214.5,189.5l3,3c11.3-17.3,17.8-37.9,17.8-60.1c0-10.4-1.5-20.4-4.2-29.9L207,126.6c0.1,1.9,0.2,3.7,0.2,5.7
		c0,14.4-3.7,27.9-10.3,39.7l17.3,17.3L214.5,189.5z"/>
	<g>
		<path d="M246.1,11.1c-8.2-8.2-15.5-0.6-15.5-0.6s4.6,2.1,9.4,6.8c4.6,4.6,6.8,9.4,6.8,9.4S254.5,19.4,246.1,11.1z"/>
		<path d="M242.6,78.6l-19,1.6c-3.1-6.6-8-13.2-12.2-18.2l32-32c0,0-2.1-4.6-6.8-9.4c-3.7-3.7-9.4-6.8-9.4-6.8l-32,32
			c-4.9-4.2-11.5-9.1-18.2-12.2l1.6-19l-3.6,0.1L138.8,51c0,0,14.7,1.3,32.2,12.4L37.4,196.8l-8.9,31.9l31.9-8.9L193.9,86.4
			c10.5,16.1,12.3,31.7,12.3,31.7l36.3-35.9L242.6,78.6z M135.5,124.1l-3.3,0.9l0.9-3.3l48.8-48.8l2.3,2.3L135.5,124.1z"/>
	</g>
	<path d="M19.4,10.4c0,0-7.3-7.6-15.5,0.6S3.2,26.5,3.2,26.5s2.3-4.8,6.8-9.4C14.7,12.5,19.4,10.4,19.4,10.4z"/>
	<path d="M107.7,117.3l-42-42l2.3-2.3l42,42l10.4-10.4L79.2,63.4C96.5,52.3,111.3,51,111.3,51L75,14.8l-3.6-0.1l1.6,19
		c-6.6,3.1-13.2,8-18.2,12.2l-32-32c0,0-5.7,3.1-9.4,6.8C8.7,25.3,6.5,30,6.5,30l32,32c-4.2,4.9-9.1,11.5-12.2,18.2l-19-1.6l0.1,3.6
		l36.3,35.9c0,0,1.8-15.7,12.3-31.7l41.2,41.2l0.1-0.1L107.7,117.3z"/>
	<polygon points="221.5,228.7 212.6,196.8 152.4,136.7 133.2,156.1 133,156.2 129.5,159.7 189.5,219.9 	"/>
</g>
</svg>
