<?xml version="1.0" encoding="utf-8"?>
<!-- Generator: Adobe Illustrator 23.0.1, SVG Export Plug-In . SVG Version: 6.00 Build 0)  -->
<svg version="1.0" id="Layer_1" xmlns="http://www.w3.org/2000/svg" xmlns:xlink="http://www.w3.org/1999/xlink" x="0px" y="0px"
	 viewBox="0 0 250 250" enable-background="new 0 0 250 250" xml:space="preserve">
<g transform="translate(0,0)">
	<path d="M21,0c0,0-13.9,81.7-9.2,105c6,29.8,23.2,45,38,46c15.3,32.5,43,67,75,99c33.7-33.7,60.7-67.5,75.5-99
		c14.8-1.1,31.8-16.3,37.8-46C242.9,81.7,229,0,229,0s-13.7,23.9-27,49.5c-31.4-64.4-122.6-64.8-154,0C34.7,23.8,21,0,21,0L21,0z
		 M70.4,61.7c14.5,0,26.1,7.6,35.1,21.8c-17.3,9.1-32.1-0.7-45.6-20.6C63.5,62.1,67,61.7,70.4,61.7L70.4,61.7z M179.1,61.7
		c3.4,0,6.9,0.4,10.5,1.2c-13.5,19.9-28.3,29.7-45.6,20.6C153,69.3,164.6,61.7,179.1,61.7L179.1,61.7z M95.3,101.2l16.5,44.8
		l14.1-44.8l14.4,45.5l16-43.7l13.5,44.9l16.4-41.3c10.9,22.9-6.4,62.2-22,81.7l-12-33.2L140.5,218l-12.6-54.4l-14.2,50.2l-13-52.6
		l-12,30.8c-21.7-29.2-28.1-59.4-17.3-85.3l11.5,35.2L95.3,101.2L95.3,101.2z"/>
</g>
</svg>
