<?xml version="1.0" encoding="utf-8"?>
<!-- Generator: Adobe Illustrator 23.0.1, SVG Export Plug-In . SVG Version: 6.00 Build 0)  -->
<svg version="1.0" id="Layer_1" xmlns="http://www.w3.org/2000/svg" xmlns:xlink="http://www.w3.org/1999/xlink" x="0px" y="0px"
	 viewBox="0 0 250 250" enable-background="new 0 0 250 250" xml:space="preserve">
<g transform="translate(0,0)">
	<path d="M124,0C81.1,0,2.1,82.1,33.6,158.4c4.2,13.3,14.7,26.5,25.9,40.6c12.8,16.1,27.2,33.3,36.2,51h10.8
		c-9.5-21-25.5-40-39.3-57.2c-14.4-18.1-25.7-34.3-25.7-46.3c0.1-4.8,1.2-9.5,2.9-13.8c12.1-32.3,60-63,78.2-71.1l1.9-1.1l2.1,0.7
		c32.1,11,68.1,35.1,81.1,71.5c2.2,6.2,3.1,9.5,2.9,14.4c-0.3,8.3-12.9,28.8-29,46.7c-15.3,17.1-32.9,35.6-42.1,56.2h10.8
		c8.8-17,24.3-33.7,38.6-49.6c12.2-13.5,23.9-26.3,28.9-39.4C245.7,95.7,165.6,0,124,0L124,0z M124.4,71.3
		c-20.4,11.3-44.8,27.5-59.9,46.4c5.1,43.7,31.1,76.9,62.3,76.9c31.2,0,57-33,62.2-76.5C173.9,96,148,79.8,124.4,71.3L124.4,71.3z
		 M93.7,115H95c6.9,0.1,13.7,1.4,20.6,3.9c-8.8,21.4-31.1,22.1-41.1,0C80.9,116.4,87.3,115.1,93.7,115z M159.5,115
		c6.8-0.1,13.7,1.2,20.6,3.9c-10.1,22.1-32.3,21.4-41.2,0C145.8,116.5,152.7,115.1,159.5,115L159.5,115z"/>
</g>
</svg>
