<?xml version="1.0" encoding="utf-8"?>
<!-- Generator: Adobe Illustrator 23.0.1, SVG Export Plug-In . SVG Version: 6.00 Build 0)  -->
<svg version="1.0" id="Layer_1" xmlns="http://www.w3.org/2000/svg" xmlns:xlink="http://www.w3.org/1999/xlink" x="0px" y="0px"
	 viewBox="0 0 250 250" enable-background="new 0 0 250 250" xml:space="preserve">
<path d="M249.4,10.7l-59,98.6l4-15c0,0-10.5-23.2-44.2-50.4l-6.2-1V99l-6-5.2V39.6l4.7-2l-17.7-11l-17.7,11l4.7,2v54.2l-6,5.2V42.8
	l-6.2,1C66.1,71.1,55.6,94.3,55.6,94.3l4,15l-59-98.6c-0.5,10-0.8,23.5-0.2,37.5l30.1,40.7c-0.6,0.5-0.3,0.3-0.9,0.7l-28.8-32
	c0.7,10.3,2,19.6,4.2,28.7l27.2,25c-0.5,0.6-0.3,0.3-0.7,0.9L7.3,95.6c2.8,8.7,6.6,16.5,11.4,25.1c1.1,1.6,1.8,2.5,1.8,2.5
	l21.7,12.9c-0.3,0.6-0.2,0.4-0.5,1l-17.3-5.9c8,11.8,19.3,23.5,31.7,33.5v19.9c0,3.3-0.9,6.6-2.5,9.4l-4.3,7.6l61.7,37.7l3-100.8
	H86.5C73.3,129.2,72.1,116,72.1,116h38.5c-1.6-2.6-1-5.9,1.4-7.7l1.1-0.8l12,19.9l12-19.9l1.1,0.8c2.4,1.8,3,5.2,1.4,7.7h38.5
	c0,0-1.2,13.2-14.5,22.5H136l3,100.8l61.7-37.7l-4.3-7.6c-1.6-2.9-2.5-6.1-2.5-9.4v-19.9c12.4-10.1,23.7-21.7,31.7-33.5l-17.3,5.9
	c-0.3-0.6-0.2-0.4-0.5-1l21.7-12.9c0,0,0.7-0.9,1.8-2.5c4.8-8.6,8.6-16.4,11.4-25.1l-24.1,16.7c-0.5-0.6-0.3-0.3-0.7-0.9l27.2-25
	c2.2-9.1,3.5-18.4,4.2-28.7l-28.8,32c-0.6-0.5-0.3-0.3-0.9-0.7l30.1-40.7C250.3,34.2,249.9,20.7,249.4,10.7z"/>
</svg>
