<?xml version="1.0" encoding="utf-8"?>
<!-- Generator: Adobe Illustrator 23.0.1, SVG Export Plug-In . SVG Version: 6.00 Build 0)  -->
<svg version="1.0" id="Layer_1" xmlns="http://www.w3.org/2000/svg" xmlns:xlink="http://www.w3.org/1999/xlink" x="0px" y="0px"
	 viewBox="0 0 250 250" enable-background="new 0 0 250 250" xml:space="preserve">
<g>
	<path d="M181.7,73.5c0,0,21.2,17.6,31.5,43.3c15.6,39.1,2.7,77.4-9.4,93.3c0,0,47.2-31.7,25.8-89.5
		C217.8,88.9,181.7,73.5,181.7,73.5z"/>
	<polygon points="118.4,76.9 126.1,85.4 111.1,107.9 106,110.1 66.7,79.4 69,60.5 117.2,21.1 171.4,61.9 172.9,90.3 171.6,96.2 
		111.9,163.2 126.9,182.8 120.1,246.8 112.1,250 104.1,185.9 83.2,161.9 146.5,83.3 117.1,57.3 97.2,75.8 106,85.4 	"/>
	<path d="M87.8,0c-5.8,9-4.9,23.6,6.4,31.2l12.3-10.1C89.2,15.5,87.8,0,87.8,0z"/>
	<path d="M58.4,141.5c0-11.5,4-22.1,10.8-30.5l0,0c0,0-31.3,14.7-30.1,60.9c0,0-16.6-41.1,16.8-89.1c-22.1,13.8-41,46.1-41,70.7
		c0,34.2,23.2,64.1,56,77.9c1.2,0.9,2,1.4,2,1.4l-39.3,5.2l71.4,8.4l-7.1-56.3C75.2,184.7,58.4,165,58.4,141.5z"/>
	<path d="M185.1,208.9L185.1,208.9c13.9-14.9,22.2-34,22.2-54.9c0-13.6-3.7-26.6-11-37.8c-3.1-4.8-9.4-14.9-14.6-22.4l-1.2,5.9
		l-10.4,11.7c22.6,43.6-2,65.6-2,65.6c4.6-27.1-5.2-45.5-9.8-52.4l-0.1,0.1c2.4,6.4,3.4,12.1,3.3,16.7
		c-0.5,19.1-11.4,35.7-27.6,44.1l-6.4,60.6l70.5-8.3l-39.3-5.2C158.7,232.8,174.9,222.2,185.1,208.9z"/>
</g>
</svg>
