<?xml version="1.0" encoding="utf-8"?>
<!-- Generator: Adobe Illustrator 23.0.1, SVG Export Plug-In . SVG Version: 6.00 Build 0)  -->
<svg version="1.0" id="Layer_1" xmlns="http://www.w3.org/2000/svg" xmlns:xlink="http://www.w3.org/1999/xlink" x="0px" y="0px"
	 viewBox="0 0 250 200" enable-background="new 0 0 250 200" xml:space="preserve">
<g>
	<path d="M208,125c0.1,24.6-0.3,18.6,0.2,43.2c0.3,16.2-13.9,30.3-30.4,30.2c-30.7-0.2-61.4,0-92.1,0c-18.4,0-36.7,0.1-55.1,0
		c-13.1-0.1-22.6-6-28-17.9c-1.5-3.4-1.9-7.4-2.5-11.2c-0.3-2.2,1-3.3,3.3-3.3c7.1,0,14.1-0.1,21.2,0c2.2,0,2.7-0.8,2.7-2.8
		c-0.1-31.1,0-50.9,0-82c0-28.8,0.2-20.8-0.1-49.6C27.1,15.6,40.1,1.3,57.4,1.5c21.3,0.2,42.6,0.2,63.8,0.2
		c34.7,0,69.5-0.1,104.2-0.2c14.4,0,24.7,10.4,24.7,24.8c0,3.2,0,6.4,0,9.6c0,3.5-0.8,4.3-4.2,4.3c-11.6,0-23.1,0-34.7,0
		c-0.9,0-1.9,0-3.1,0c0,11.5,0-14,0-1.9L208,125z M202.5,39.4c-0.1-15.9-0.2,5-0.2-10.8c0-7.8,1.5-15.1,7.6-20.7
		c0.1-0.1,0.1-0.5,0.1-0.9c-0.8,0-1.4,0-2.1,0c-28.9,0-57.9,0-86.8,0C99.8,7,78.5,7,57.2,7c-11.3,0-21,7.4-23.5,18.4
		c-0.8,3.6-0.9,7.3-0.9,11c-0.1,24.5,0,12.3,0,36.9c0,33.5,0,55.7,0,89.2c0,1,0.1,2,0.2,3.1c0.8,0.1,1.4,0.2,2,0.2
		c38.4,0,76.7,0,115.1,0c3.1,0,4,0.7,4.1,3.9c0.5,14.1,13.3,24.2,26,23c8.5-0.8,15-4.9,19.4-12.4c2.6-4.4,3-9.3,3-14.2
		c0-22,0-2.1,0-24L202.5,39.4z M6,171.4c0.1,1.1,0.2,1.9,0.4,2.6c2.3,10.5,12.2,18.7,23,18.8c16.4,0.1,32.9,0,49.3,0
		c25.7,0,51.4,0,77,0c1.3,0,2.5,0,4.6,0c-7.3-5.8-10.9-13-12-21.4C100.7,171.4,53.5,171.4,6,171.4z M208.6,33.9
		c0.4,0.2,0.7,0.4,0.9,0.4c11.1,0.1,22.2,0.1,33.3,0.2c1.5,0,1.7-0.8,1.7-2c-0.2-3.3-0.1-6.7-0.5-10c-0.8-6.9-6.6-13.1-13.5-14.7
		c-7.1-1.6-14.3,1.3-18.6,7.1C207.4,20.8,208.6,27.4,208.6,33.9z"/>
	<g>
		<path d="M116.7,119.5c-23.9,0-46.4-9.3-63.4-26.3l-1.8-1.8l1.8-1.8c16.9-16.9,39.4-26.3,63.4-26.3s46.4,9.3,63.4,26.3l1.8,1.8
			l-1.8,1.8C163.1,110.2,140.6,119.5,116.7,119.5z M58.9,91.4c15.7,14.8,36.2,22.9,57.8,22.9s42.1-8.1,57.8-22.9
			c-15.7-14.8-36.2-22.9-57.8-22.9S74.6,76.6,58.9,91.4z"/>
		<g>
			<path d="M113.8,119.5c-1.4,0-2.6-1.2-2.6-2.6s1.2-2.6,2.6-2.6c14.6,0,26.6-10.1,26.6-22.6s-11.9-22.6-26.6-22.6
				c-10.6,0-19.3,7.3-19.3,16.3c0,9,8.6,16.3,19.3,16.3c6.6,0,12-4.5,12-10c0-5.5-5.4-10-12-10c-2.6,0-4.7,1.7-4.7,3.7
				c0,2,2.1,3.7,4.7,3.7c1.4,0,2.6,1.2,2.6,2.6c0,1.4-1.2,2.6-2.6,2.6c-5.4,0-9.9-4-9.9-8.9s4.4-8.9,9.9-8.9
				c9.5,0,17.2,6.8,17.2,15.2s-7.7,15.2-17.2,15.2c-13.5,0-24.5-9.6-24.5-21.5c0-11.8,11-21.5,24.5-21.5c17.5,0,31.7,12.5,31.7,27.8
				C145.5,107,131.3,119.5,113.8,119.5z"/>
		</g>
	</g>
</g>
</svg>
