<?xml version="1.0" encoding="utf-8"?>
<!-- Generator: Adobe Illustrator 23.0.1, SVG Export Plug-In . SVG Version: 6.00 Build 0)  -->
<svg version="1.0" id="Layer_1" xmlns="http://www.w3.org/2000/svg" xmlns:xlink="http://www.w3.org/1999/xlink" x="0px" y="0px"
	 viewBox="0 0 250 250" enable-background="new 0 0 250 250" xml:space="preserve">
<g>
	<path d="M202.5,74.1c6.5,5.4,13.3,10.7,19.6,16.4c10.1,9.3,19.1,19.8,26.8,31.2c1.4,2.1,1.6,3.6,0.1,5.8
		c-20.1,29.1-45.5,51.7-79,64.2c-27.7,10.3-55.8,10.4-84,1.8c-0.6-0.2-1.3-0.5-2.6-1c1.8-1.6,3.4-2.9,4.8-4.3
		c5.8-5.7,11.6-11.5,17.3-17.3c1.1-1.1,2-1.5,3.7-0.9c29.8,10.3,60.6-9.2,63.9-40.5c0.7-7.1-0.2-14.1-2.6-21
		c-0.3-0.8-0.1-2.3,0.5-2.9c10.1-10.2,20.3-20.4,30.4-30.5C201.5,74.8,201.7,74.6,202.5,74.1z"/>
	<path d="M46.8,173.9c-14.2-9.9-26.4-21.7-37.1-35.1c-3.2-4-6-8.3-9.1-12.4c-0.8-1.1-0.9-1.9-0.1-3.1c23.6-34.4,53.9-59.7,95.2-70
		c22.3-5.5,44.6-4.6,66.7,1.9c0.5,0.1,1,0.3,1.5,0.5c0.1,0.1,0.2,0.2,0.6,0.5c-3,3-6.1,6-9.1,9c-4.2,4.2-8.5,8.4-12.6,12.6
		c-1.2,1.3-2.3,1.5-3.9,1c-27.5-8-55,8.5-60.9,36.5c-1.7,8-1.2,15.9,1.2,23.6c0.4,1.3,0.4,2.2-0.7,3.3
		c-10.3,10.2-20.6,20.5-30.9,30.8C47.5,173.3,47.3,173.5,46.8,173.9z"/>
	<path d="M40.1,221c-4.2-4.2-8.4-8.4-12.5-12.5C87.4,148.7,147.2,88.7,206.9,29c4.1,4.1,8.4,8.4,12.6,12.6
		C159.9,101.2,100,161.1,40.1,221z"/>
</g>
</svg>
