<?xml version="1.0" encoding="utf-8"?>
<!-- Generator: Adobe Illustrator 23.0.1, SVG Export Plug-In . SVG Version: 6.00 Build 0)  -->
<svg version="1.0" id="Layer_1" xmlns="http://www.w3.org/2000/svg" xmlns:xlink="http://www.w3.org/1999/xlink" x="0px" y="0px"
	 viewBox="0 0 250 250" enable-background="new 0 0 250 250" xml:space="preserve">
<g>
	<path d="M45.4,177.9c0-1.8,0-2.9,0-3.9c0-35.2,0.2-70.4-0.1-105.6c-0.2-27.2,12.1-46.6,36.3-58.2c22.2-10.7,45.6-13.3,69.4-6.3
		c11.6,3.4,20.8,11,29.5,19c3.3,3.1,6.3,6.7,9.2,9.8c-26.9,26.9-53.6,53.6-80.4,80.4c-7.1-8.6-16.4-13.3-28.1-12.7
		c0-5.7,0-11.3,0-16.8c0-0.6,0.4-1.2,0.7-1.7c6.1-9,13.9-15.9,24.8-18.5c6.2-1.4,11.9,0.1,17.4,3.6c1.7-2.6,3.4-5.2,5.2-7.9
		c-17-10.3-31.7-5.3-46,5.8c0.6-1.8,1.1-3.6,1.8-5.3c5.4-13.8,17-21.7,31.9-22c9.6-0.1,18.8,1.7,27.3,6.2c3.8,2.1,7.2,4.9,11.1,7.5
		c1.9-1.5,4.3-3.3,6.9-5.4c-1.3-1.4-2.4-2.8-3.7-3.8C140.8,28.4,121,24.1,99.5,32c-14.2,5.2-21.9,16.8-25.3,31.1
		C72.9,69,72.2,75.3,72,81.4c-0.6,21.3-0.8,42.6-1.2,64c0,1.9,0,3.9-0.2,5.8c-0.1,0.8-0.4,1.8-0.9,2.3
		C61.9,161.5,53.9,169.4,45.4,177.9z"/>
	<path d="M204.3,72.9c0,4.4,0.3,8.8-0.1,13.1c-1.2,13.1-3.9,25.8-11,37.1c-5.8,9.4-13.8,16.6-22.5,23.3
		c-8.3,6.3-16.7,12.3-24.7,19.1c-8,6.7-11.8,15.5-12,26.3c-0.4,21.8-8.9,39.6-28.1,51c-12.9,7.6-26.7,9.9-41,4.2
		c-7.6-3.1-13.1-8.5-16.3-16.1c-0.3-0.8-0.4-2.3,0-2.7c8.1-8.4,16.3-16.8,24.9-25.5c1.1,3,1.8,5.3,2.7,7.5
		c4.5,10.6,13.1,14.2,23.6,9.6c3.5-1.5,6.8-3.7,10.4-5.7c-2.1-2.8-3.9-5.3-5.6-7.6c-3.1,1.7-5.9,3.5-8.9,4.8
		c-5.2,2.3-8.4,1-10.6-4.3c-1.4-3.4-2.2-7-3.1-10.6c-0.2-0.7,0.3-1.6,0.7-2.3c0.3-0.6,1-1,1.5-1.5c39.2-39.2,78.4-78.4,117.6-117.7
		c0.7-0.7,1-1.7,1.4-2.5C203.7,72.3,204,72.6,204.3,72.9z"/>
	<path d="M232.2,5.4c4.1,4.1,8.4,8.4,12.5,12.5c-75.6,75.6-151.4,151.4-227,227c-4.2-4.2-8.4-8.5-12.5-12.6
		C80.8,156.8,156.5,81.1,232.2,5.4z"/>
	<path d="M80.7,141.8c0-10.1,0-20.7,0-31.1c5.4-2.5,17.2,1.5,21.9,9.3C95.1,127.4,87.7,134.7,80.7,141.8z"/>
</g>
</svg>
