<?xml version="1.0" encoding="utf-8"?>
<!-- Generator: Adobe Illustrator 23.0.1, SVG Export Plug-In . SVG Version: 6.00 Build 0)  -->
<svg version="1.0" id="Layer_1" xmlns="http://www.w3.org/2000/svg" xmlns:xlink="http://www.w3.org/1999/xlink" x="0px" y="0px"
	 viewBox="0 0 250 250" enable-background="new 0 0 250 250" xml:space="preserve">
<g>
	<path d="M177.7,154c3.1,37.3,18.4,68.4,42.9,95.8c-1.1,0.1-1.8,0.2-2.6,0.2c-8.7,0-17.5-0.1-26.2,0.1c-2.1,0-3.5-0.7-4.8-2.1
		c-7.9-8.7-13.6-18.8-18.6-29.4c-6.7-14.2-11.7-29.1-16.3-44.1c-0.6-2-1.4-2.6-3.5-2.4c-18.2,2.4-34.2,9.5-47.4,22.4
		c-0.4,0.4-0.7,0.8-1.1,1.3c15.4,18,30.8,35.9,46.4,54.1c-45.1,0-89.8,0-134.8,0c0.3-0.7,0.6-1.4,0.9-2c3.8-6.8,7.6-13.5,11.2-20.4
		c1-1.8,2-2.5,4.1-2.5c18.9,0.1,37.8,0.1,56.7,0.1c0.9,0,1.9,0,3.5,0c-2.5-2.2-4.5-3.8-6.5-5.5c-6.2-5.4-11.5-11.5-15.1-18.9
		c-7.3-14.9-5-29,4.1-42.2c8.6-12.5,20.4-21.2,33.7-27.9c16.9-8.5,34.7-13.4,53.8-12.3c4.3,0.2,8.6,1,12.7,2.1
		c4,1.1,7.9,2.9,11.9,4.5c2.4-2.9,4.7-6.2,7.6-9c8.1-8.1,17.5-13.6,29.4-13.6c10.6,0.1,18.4,7.5,19.1,18.1
		c0.5,7.7-1.6,14.7-5.4,21.2c-6.1,10.6-14.8,18.4-26.4,22.5C194.3,168.5,185.6,165.6,177.7,154z"/>
	<path d="M11.1,0.2c3.1,0,6.1,0,9.5,0c0,1.1,0,2,0,3c0,70.2,0,140.4-0.1,210.6c0,1.6-0.6,3.4-1.5,4.8c-2.4,3.8-5,7.4-7.9,11.7
		C11.1,153.2,11.1,76.7,11.1,0.2z"/>
	<path d="M37.5,0.1c3.1,0,6.1,0,9.3,0c0,71.5,0,142.9,0,214.5c-3.1,0-6.1,0-9.3,0C37.5,143.1,37.5,71.7,37.5,0.1z"/>
	<path d="M65.9,145.2c0-48.9,0-96.9,0-145c3.2,0,6.2,0,9.6,0c0,1.1,0,2,0,3c0,43.5,0,87.1,0,130.6c0,1.9-0.5,3.3-2,4.6
		c-1.8,1.5-3.3,3.4-5,5.1C67.9,143.9,67.1,144.3,65.9,145.2z"/>
	<path d="M92.6,0c3.1,0,6.1,0,9.5,0c0,1,0,2,0,2.9c0,38.1,0,76.1,0,114.2c0,2-0.5,3-2.4,3.8c-2.4,0.9-4.6,2.2-7.1,3.5
		C92.6,82.9,92.6,41.6,92.6,0z"/>
	<path d="M118.7,113.5c0-38,0-75.5,0-113.3c3.2,0,6.3,0,9.6,0c0,0.9,0.1,1.8,0.1,2.6c0,35.2,0,70.4,0.1,105.6c0,2.3-0.8,3-2.9,3.4
		C123.5,112.2,121.3,112.9,118.7,113.5z"/>
	<path d="M173.2,111.1c0-37,0-73.9,0-110.9c3.1,0,6.1,0,9.4,0c0,0.9,0.1,1.8,0.1,2.7c0,34.6,0,69.2,0.1,103.8c0,2.8-1.7,4.1-3.2,5.7
		c-0.2,0.3-1.1,0.1-1.6,0C176.4,112,174.9,111.5,173.2,111.1z"/>
	<path d="M154,108.7c-3.1,0-6.1,0-9.3,0c0-36.1,0-72.2,0-108.6c3.1,0,6.1,0,9.3,0C154,36.3,154,72.4,154,108.7z"/>
	<path d="M199.5,96.6c0-32.4,0-64.4,0-96.5c3.2,0,6.2,0,9.7,0c0,1,0,1.9,0,2.8c0,29.2,0,58.4,0.1,87.6c0,2.2-0.7,3.1-2.7,3.6
		C204.2,94.6,202,95.6,199.5,96.6z"/>
	<path d="M235.3,96c-2.8-1-5.8-1.9-8.5-3.2c-0.6-0.3-0.9-1.7-0.9-2.7c-0.1-13.8,0-27.7,0-41.5c0-15.1,0-30.2,0-45.3c0-1,0-2.1,0-3.2
		c3.3,0,6.3,0,9.5,0C235.3,32.1,235.3,64,235.3,96z"/>
</g>
</svg>
