<?xml version="1.0" encoding="utf-8"?>
<!-- Generator: Adobe Illustrator 23.0.1, SVG Export Plug-In . SVG Version: 6.00 Build 0)  -->
<svg version="1.0" id="Layer_1" xmlns="http://www.w3.org/2000/svg" xmlns:xlink="http://www.w3.org/1999/xlink" x="0px" y="0px"
	 viewBox="0 0 250 250" enable-background="new 0 0 250 250" xml:space="preserve">
<g>
	<path d="M179.3,32.4c33.2,0,56.8,20.2,61.4,48.5c0.4,2.2,0,3.4-2.3,4.3c-21.7,8.5-43.3,17.2-64.9,25.9c-1.7,0.7-3.1,0.7-4.8-0.1
		c-9.3-4.3-18.7-8.6-28.1-12.8c-1.6-0.7-2.1-1.4-1.9-3.3c2.3-16,4.4-32,6.7-47.9c0.1-1,0.8-2.2,1.6-2.8
		C158.1,36.6,170.4,32.5,179.3,32.4z"/>
	<path d="M82.4,93c8.7,3.9,16.7,7.6,24.7,11.2c17.3,7.9,34.7,15.7,52,23.7c1,0.5,2.3,1.6,2.5,2.6c3.9,17,7.6,34.1,11.5,51.7
		c-14.8,7.4-29.6,14.9-44.8,22.5C113.1,167.5,97.9,130.6,82.4,93z"/>
	<path d="M71.3,111.1c15.5,37.8,30.9,75.2,46.4,112.8c-13.1,7.4-26.9,13.7-36.4,26.1c-1.1-4.4-1.9-8.9-3.3-13.1
		c-4-11.5-10.4-21.7-17.1-31.8c-5.7-8.7-11.6-17.2-17.3-25.9c-0.6-0.9-0.9-2.6-0.5-3.5c9.1-21.1,18.3-42.1,27.5-63.1
		C70.7,112.2,70.9,111.9,71.3,111.1z"/>
	<path d="M123.7,101.2c-4.2-1.9-8.3-3.7-12.3-5.6c-10.4-4.7-20.8-9.5-31.2-14.2c-1.9-0.9-2.7-2-3.1-4C72.8,55.8,68.4,34.3,64,12.7
		c-0.1-0.5-0.1-1-0.2-1.8c6-0.3,11.8,0.3,17.4,1.9c24.9,7.1,40.2,23.8,47.7,48.2c0.2,0.6,0.3,1.4,0.2,2.1
		c-1.7,12.4-3.4,24.8-5.1,37.2C124,100.5,123.9,100.7,123.7,101.2z"/>
	<path d="M38,152.5c-13.4-21.4-25.4-43-28.3-68.2c-1.7-15,0.6-29.3,7.4-42.9c0.4-0.8,0.9-1.5,1.5-2.6C23,42.9,27.3,47,31.6,51
		C43.1,61.8,54.5,72.5,66,83.2c1.3,1.3,1.4,2.2,0.7,3.8c-9.3,21.1-18.5,42.2-27.7,63.3C38.8,150.9,38.5,151.5,38,152.5z"/>
	<path d="M235.9,102.5c-0.7,13-4,24.8-10.9,35.5c-8.6,13.5-20.5,23.7-33.5,32.6c-3.1,2.1-6.2,4.1-9.7,6.3
		c-3.6-16.3-7.2-32.3-10.8-48.5C192.6,119.8,214,111.2,235.9,102.5z"/>
	<path d="M18,18.6C26,8.9,35.8,2.8,48.2,0c3.8,19.1,7.6,38,11.6,57.7C45.5,44.4,31.9,31.6,18,18.6z"/>
</g>
</svg>
