<?xml version="1.0" encoding="utf-8"?>
<!-- Generator: Adobe Illustrator 23.0.1, SVG Export Plug-In . SVG Version: 6.00 Build 0)  -->
<svg version="1.0" id="Layer_1" xmlns="http://www.w3.org/2000/svg" xmlns:xlink="http://www.w3.org/1999/xlink" x="0px" y="0px"
	 viewBox="0 0 250 250" enable-background="new 0 0 250 250" xml:space="preserve">
<g>
	<path d="M107.7,84.2c-5,10.4-10.8,19.7-18.5,28.1c-18.6-10.6-37.8-19.6-57.9-27.4c-0.7,1.7-1.3,3.2-1.9,4.7c-0.6,1.5-1.2,3-1.8,4.7
		c22.1,8.8,43.9,18.4,64.1,30.9c11.1-9.9,24.5-30.3,29.4-44.5c-0.4-0.3-0.8-0.6-1.2-0.9c-15-9-30-18-45-26.9
		c-1.5-0.9-2.2-1.7-2.1-3.5c0.7-7.6,1.2-15.3,1.9-22.9c0.1-0.9,0.8-2.3,1.6-2.6C91.2,17.1,105.4,9.2,119,0
		c18.6,13.6,36.5,27.8,52.3,45.1c-7.3,8.3-14.4,16.8-26.1,18.6c-6.7,1.1-12.8-1.1-18.5-4.1c-10.2-5.3-18.3-13.1-26.2-21.3
		c-0.6-0.6-1-1.4-1.6-2.3c-2.9,2.7-5.3,4.8-7.8,7.1c9.8,10.5,19.9,20.3,32.9,26.5c16.1,7.7,31,5.4,44.4-6.3c1.5-1.3,2.8-1.7,4.7-1.4
		c15.4,2.2,30.2-0.3,44.6-6c1.7-0.7,2.8-0.6,4.2,0.7c12.5,11.3,21,25.3,27.9,40.1c-20.8,13.3-41.5,26.6-62.7,40.1
		c-1.8-2.4-4.3-5.1-6.2-8.3c-4.7-8.1-9.2-16.3-13.6-24.5c-0.3-0.6,0.3-2.1,0.9-2.7c9-8.5,18.8-16,29.8-21.8c0.5-0.2,0.9-0.5,1.6-0.9
		c-1.5-3-3-5.8-4.4-8.7c-7.9,2.2-28.6,17.4-41.3,30.4c2.7,5.3,5.4,10.6,8,15.9c1.1,2.3,2.1,4.7,3.5,6.8c1.2,1.8,0.7,2.9-0.6,4.3
		c-9.7,10.2-18.3,21.3-24.5,34c-3.4,7-5.9,14.5-8.8,21.8c-0.5,1.2-1.1,2.5-2.1,3.2c-6.2,4.2-12.6,8.2-18.9,12.2c-1,0.6-1.8,1.2-3,0
		c-7.2-7.8-16.4-9.2-26.2-8.1C68,192,55.6,196.7,43.1,201c-0.9,0.3-1.8,0.7-2.9,1.1c1.1,3.2,2.2,6.2,3.3,9.4
		c5.3-1.8,10.4-3.7,15.7-5.1c8.4-2.2,16.7-4.4,25.2-5.7c10.2-1.6,16.3,2.4,20,12.1c1.7,4.6,3,9.4,4.6,14.3
		c-21.7,5.8-42.1,13.6-62.1,22.9c-5.8-6.4-10.6-13.2-14.6-20.6c-3.7-6.6-7-13.4-10.5-20.2c-0.4-0.7-0.6-1.8-0.4-2.5
		c2.7-7.4,4.4-14.9,3.8-23.2c5.4-0.2,10.6-0.6,15.7-0.5c16.1,0.1,32.1,0.3,48.2,0.5c3.7,0,3.7,0,4.2-3.6c2.1-15.6,0.6-30.8-4.3-45.7
		c-0.7-2-1.6-3-3.7-3.2c-17.3-1.6-34.6-3.5-51.9-4.9c-8.8-0.7-17.6-0.4-26.5-0.5c-0.7,0-1.4-0.1-1.9-0.1c1.5-4.6,3.3-9,4.4-13.6
		c2-8.6,1.5-17.2-0.9-25.7c-0.3-1-0.4-2.4,0.1-3.2c6.7-12.2,14-23.9,23.9-33.8c2.2-2.2,3.9-2.6,6.8-1.5c20.8,8,40,19,58.8,30.6
		C101.3,80.2,104.4,82.1,107.7,84.2z"/>
	<path d="M0.3,136.1c5.7,0,11.4,0,17.1,0c20.1,0.2,40,1.6,59.9,4.4c1,0.1,2.5,0.7,2.7,1.5c3.1,10.2,3.8,20.6,3,31.4
		c-25.2-0.4-50.2-1.1-75.1,2.1C3.7,168.1,0.1,145.4,0.3,136.1z"/>
</g>
</svg>
