<?xml version="1.0" encoding="utf-8"?>
<!-- Generator: Adobe Illustrator 23.0.1, SVG Export Plug-In . SVG Version: 6.00 Build 0)  -->
<svg version="1.0" id="Layer_1" xmlns="http://www.w3.org/2000/svg" xmlns:xlink="http://www.w3.org/1999/xlink" x="0px" y="0px"
	 viewBox="0 0 250 250" enable-background="new 0 0 250 250" xml:space="preserve">
<g>
	<path d="M160,189.1c0-16,0-32.3,0-48.8c7.4,1.3,14.6,1.4,21.7-0.5c5.7-1.5,10.8-3.9,14.1-9.1c0.9-1.3,1.4-2.9,2.2-4.6
		c-18.7,5.2-37,6.2-55.8,1.6c0.5,3.5,2.7,5.8,5.4,7.5c1.8,1.1,2.2,2.3,2.2,4.3c-0.1,14.8,0,29.7,0,44.5c0,1,0,1.9,0,3
		c-6.2-0.5-12.1-1.2-18-1.5c-13.1-0.7-26.2-0.5-38.8,3.6c-3.9,1.3-7.8,3.3-11.2,5.8c-4.6,3.4-5.5,8.6-3.4,13.9
		c15.5-12,33.8-12.4,52.3-12.9c0,18.2,0,35.8,0,53.6c-6.9,0.8-13.7,0.2-20.3-1.4c-17.5-4.4-31.1-14.7-42.3-28.5
		C53.8,202,45.3,181.5,41,159.3c-6.7-34.3-4-67.8,9.8-100.1c7.4-17.5,17.9-32.8,33.2-44.5c14.3-11,30.3-16.4,48.5-14.2
		c13.9,1.7,26,7.7,36.5,16.6c16,13.6,26.7,31,33.5,50.6c14.2,41,13.4,81.8-2.9,122c-5.1,12.6-12.2,24-21.4,34.2
		c-0.6,0.7-1.1,1.5-1.7,2.3c-0.3-0.1-0.5-0.3-0.8-0.4c0-2,0-4,0-6c0.1-5.6,0.2-11.3,0.3-16.9c0.1-4.1-2.2-6.9-5.5-8.8
		C167.2,192.2,163.6,190.8,160,189.1z M51.2,108.4c22.4-6,43.2-2.9,62.4,10.2c-1.8-12.2-13.3-22.8-27.7-25.2
		C72.4,91.1,56.5,97.9,51.2,108.4z M47.1,132.4c0.9,10.6,13.1,21.9,26.3,24.3c14.3,2.7,30.4-4.1,35.9-14.9
		C87.3,148,66.6,144.9,47.1,132.4z"/>
	<path d="M141.1,197.1c8.2,0.9,16.1,2.6,23.5,6c0.6,0.3,1,1.4,1,2.1c0.1,9.6,0.1,19.2,0,28.8c0,0.8-0.4,1.8-0.9,2.2
		c-6.9,5.2-14.4,9.1-22.8,11.4c-0.2,0.1-0.5,0-0.8,0C141.1,230.7,141.1,214,141.1,197.1z"/>
</g>
</svg>
