<?xml version="1.0" encoding="utf-8"?>
<!-- Generator: Adobe Illustrator 23.0.1, SVG Export Plug-In . SVG Version: 6.00 Build 0)  -->
<svg version="1.0" id="Layer_1" xmlns="http://www.w3.org/2000/svg" xmlns:xlink="http://www.w3.org/1999/xlink" x="0px" y="0px"
	 viewBox="0 0 250 250" enable-background="new 0 0 250 250" xml:space="preserve">
<g>
	<path d="M148,13.3c-2.9,2.2-5.4,4.1-8,6c-2.6-2.4-5.1-4.7-7.8-7.3c1.3-2.6,2.8-5.4,4.4-8.4C141.4,5.6,144.7,9.2,148,13.3z"/>
	<path d="M141.4,21.7c2.7-1.4,5.5-2.9,8.5-4.5c2.7,4.3,4.1,8.8,4.6,13.8c-3.2,0.5-6.2,1-9.3,1.5C143.9,29.1,142.7,25.6,141.4,21.7z"
		/>
	<path d="M155.6,34.9c-0.4,5.1-0.7,9.6-1.1,14.5c-3.8-0.8-6.9-1.4-10.1-2.1c0.4-3.8,0.7-7.3,1.1-11.3
		C148.4,35.8,151.5,35.4,155.6,34.9z"/>
	<path d="M95.2,50c-0.3-4.9-0.6-9.4-1-14.4c3.6,0.2,6.8,0.4,10.3,0.5c0.2,3.8,0.3,7.4,0.5,11.3C102,48.2,98.9,49,95.2,50z"/>
	<path d="M132.7,1.5c-1.2,3.2-2.4,6.1-3.5,8.9c-3.2,0-6.3,0-9.5,0c-0.9-2.8-1.9-5.8-3-9C122.1-0.7,127.2-0.3,132.7,1.5z"/>
	<path d="M117,11.5c-2.7,2.5-5.1,4.8-7.8,7.3c-2-1.3-4.8-3.1-8.1-5.3c3.7-3.6,7.2-6.9,10.9-10.4C114,6.5,115.7,9.3,117,11.5z"/>
	<path d="M105.7,215.3c-3.5,0.4-6.7,0.7-10.2,1.1c-0.4-4.2-0.7-8.1-1.1-12.3c3.5-0.4,6.7-0.7,10.3-1.1
		C105.1,207.2,105.4,211.2,105.7,215.3z"/>
	<path d="M146.7,199.6c0.4-4.2,0.7-8.1,1.1-12.3c3.4,0.2,6.7,0.4,10.2,0.6c-0.3,4.1-0.7,8-1,12.3
		C153.6,199.9,150.4,199.8,146.7,199.6z"/>
	<path d="M158,183.9c-3.5-0.2-6.7-0.4-10.2-0.6c0.2-2,0.3-4,0.5-6c0.2-2,0.3-4,0.5-6.3c3.4,0.2,6.7,0.4,10.2,0.5
		C158.7,175.7,158.4,179.6,158,183.9z"/>
	<path d="M143.6,248.2c-0.5-3.3-1-6.4-1.4-8.8c1.2-1.5,2-2.5,3.1-3.9c2.6,0.2,5.8,0.4,8.9,0.6C155,246.6,153.2,247.1,143.6,248.2z"
		/>
	<path d="M106.1,50.8c1.8,3.3,3.4,6.5,5.1,9.8c-2.4,1.9-4.9,3.9-7.9,6.4c-2.3-4.4-4.4-8.5-6.7-13C100.1,52.8,103,51.8,106.1,50.8z"
		/>
	<path d="M106.4,235.5c1,1.4,1.8,2.3,2.6,3.3c0.2-0.1,0.5-0.2,0.7-0.2c-0.5,3.2-1,6.4-1.5,9.6c-10.6-1-10.7-1.9-10.9-12
		C100.4,235.9,103.6,235.7,106.4,235.5z"/>
	<path d="M103.8,186.8c0,4.5,0,8.5,0,12.8c-3,0.2-6.1,0.4-9.4,0.6c-0.4-4.2-0.7-8.1-1.1-12.3C96.8,187.5,100.1,187.2,103.8,186.8z"
		/>
	<path d="M153.5,53.5c-2.3,4.5-4.4,8.6-6.7,13c-3-2.4-5.5-4.4-7.9-6.3c1.6-3.3,3.1-6.5,4.7-9.9C146.4,51.3,149.5,52.2,153.5,53.5z"
		/>
	<path d="M90,156.3c11.1-1.3,11.8,0.9,11.8,10.8c-3,0.2-6,0.7-8.9,0.5c-1-0.1-2.6-1.9-2.8-3.1C89.7,161.9,90,159.1,90,156.3z"/>
	<path d="M160.9,156.2c0,3,0.3,5.9-0.1,8.7c-0.2,1.1-1.9,2.6-3,2.7c-2.8,0.2-5.7-0.2-8.5-0.4C148.9,157.2,149.9,155.2,160.9,156.2z"
		/>
	<path d="M104.9,32.6c-3.2-0.5-6.5-1-10.3-1.6c1.6-4.6,3-8.8,4.6-13.4c3.2,1.7,6,3.2,8.8,4.6C107,25.7,106,29.1,104.9,32.6z"/>
	<path d="M155.1,232.1c-3.6-0.2-6.8-0.4-10.4-0.5c0.3-4.1,0.7-8,1-12.3c3.2,0.2,6.2,0.3,9.4,0.5
		C155.1,223.9,155.1,227.8,155.1,232.1z"/>
	<path d="M156.2,216.4c-3.7-0.4-7-0.7-10.4-1.1c0.4-4.1,0.7-8.1,1-12.2c3.3,0.3,6.3,0.7,9.4,1C156.2,208.1,156.2,212.1,156.2,216.4z
		"/>
	<path d="M103.2,183.3c-3.6,0.2-6.8,0.4-10.2,0.5c-0.2-4.2-0.4-8.1-0.6-12.3c3.3-0.2,6.4-0.4,9.7-0.6
		C102.5,175.2,102.9,179.2,103.2,183.3z"/>
	<path d="M96,219.8c3.4-0.2,6.5-0.4,9.7-0.6c0.2,1.5,0.4,2.7,0.5,4c0.2,2.7,0.4,5.4,0.6,8.3c-3.2,0.4-6.3,0.7-9.7,1.1
		C96.7,228.3,96.3,224.2,96,219.8z"/>
	<path d="M169,165.9c0-2.8-0.2-5.6,0.1-8.2c0.1-1,1.5-2.6,2.4-2.7c2.8-0.4,5.7-0.1,8.5-0.1C181.8,165.5,179.2,167,169,165.9z"/>
	<path d="M171.1,87.2c-3.4,1.7-6.4,3.2-9.3,4.7c-1.8-2.9-3.6-5.8-5.5-8.7c2.1-2.1,4.4-4.4,7.1-7.1C166,79.8,168.5,83.4,171.1,87.2z"
		/>
	<path d="M179,119.4c-3.7,0.4-6.8,0.7-10.3,1.1c-0.5-3.7-1.1-7.3-1.6-11.2c3.2-0.7,6.3-1.4,9.9-2.2
		C177.6,111.1,178.2,115.1,179,119.4z"/>
	<path d="M154.1,81.2c-3.1-1.3-5.8-2.5-8.8-3.8c0.5-2.9,1-6,1.5-9.3c5,0.5,9.3,2.2,13.3,5.1C158,75.9,156,78.6,154.1,81.2z"/>
	<path d="M179.3,122.8c0.2,3.5,0.4,6.7,0.5,9.9c0,0.7-0.1,1.5-0.1,2.4c-3.2,0.2-6.3,0.4-9.6,0.6c-0.3-4-0.6-7.7-1-11.8
		C172.5,123.6,175.7,123.2,179.3,122.8z"/>
	<path d="M80.9,166.1c-2.4,0-4.4,0.1-6.4,0c-2.9-0.1-4.7-1.8-5-4.7c-0.2-2.2,0-4.3,0-6.6c3.3,0,6.2-0.2,9.1,0.1
		c0.8,0.1,2.1,1.5,2.2,2.4C81.1,160.1,80.9,163,80.9,166.1z"/>
	<path d="M74,107.6c3.6,0.8,6.7,1.4,10,2.1c-0.7,3.8-1.4,7.4-2.1,11.2c-3.2-0.3-6.3-0.6-9.8-1C72.7,115.8,73.3,111.8,74,107.6z"/>
	<path d="M81.3,124.4c-0.3,4-0.6,7.7-0.9,11.8c-3.5-0.4-6.8-0.7-10.3-1c0.5-4,1-7.7,1.5-11.8C74.9,123.7,78,124,81.3,124.4z"/>
	<path d="M69.6,150.9c0.2-3.9,0.4-7.6,0.6-11.8c3.3,0.2,6.6,0.3,9.8,0.5c0,3.9,0,7.7,0,11.8C76.4,151.2,73.1,151,69.6,150.9z"/>
	<path d="M105.1,77.8c-2.9,1.5-5.5,2.8-8.3,4.3c-2-2.3-4.1-4.8-6.3-7.2c2.5-2.9,7.8-5.5,12.7-6.2C103.9,71.8,104.5,75,105.1,77.8z"
		/>
	<path d="M109.2,77.5c-1-2.6-2-5-2.7-7.5c-0.2-0.7,0.4-2,1-2.4c2-1.4,4.2-2.6,6.6-4.1c1.3,1.6,2.9,3.3,4.2,5.2
		c1.9,3,0.4,6.6-3.1,7.6C113.3,76.8,111.2,77.1,109.2,77.5z"/>
	<path d="M141.1,77.2c-2-0.3-4.3-0.5-6.5-1.1c-3.3-0.8-4.8-4.8-2.8-7.7c1.2-1.8,2.7-3.4,3.9-5c2.4,1.3,4.7,2.4,6.8,3.8
		c0.6,0.4,1.1,1.9,0.9,2.8C142.9,72.3,142,74.5,141.1,77.2z"/>
	<path d="M75,104.2c1.2-4.1,2.4-7.9,3.6-11.9c3.3,1.3,6.3,2.4,9.4,3.6c-1,3.6-2,7.1-3.1,10.8C81.7,105.9,78.5,105.1,75,104.2z"/>
	<path d="M176.5,103.1c-3.6,0.9-6.6,1.7-9.8,2.6c-1.2-3.6-2.3-7.1-3.6-10.8c2.9-1.1,5.9-2.3,9.2-3.6
		C173.7,95.2,175.1,99,176.5,103.1z"/>
	<path d="M94.8,84.1c-2,3.1-3.7,5.8-5.6,8.8c-2.8-1.4-5.8-2.9-9.2-4.6c2.4-3.7,4.7-7.2,7.1-10.9C90,79.9,92.5,82,94.8,84.1z"/>
	<path d="M127.4,239.6c4-0.2,7.5-0.4,11.3-0.6c0.4,3.3,0.7,6.4,1.1,9.9c-4,0.4-7.8,0.7-11.8,1.1
		C127.8,246.4,127.6,243.1,127.4,239.6z"/>
	<path d="M180.1,150.8c-3.3,0-6.4,0-9.7,0c0-3.8,0-7.5,0-11.4c3.2,0,6.4,0,9.7,0C180.1,143.2,180.1,147,180.1,150.8z"/>
	<path d="M123.8,250c-4.1-0.3-7.9-0.7-12.1-1c0.5-3.4,1-6.5,1.5-9.9c3.6,0.2,7,0.4,10.6,0.6C123.8,243,123.8,246.2,123.8,250z"/>
</g>
</svg>
