<?xml version="1.0" encoding="utf-8"?>
<!-- Generator: Adobe Illustrator 23.0.1, SVG Export Plug-In . SVG Version: 6.00 Build 0)  -->
<svg version="1.0" id="Layer_1" xmlns="http://www.w3.org/2000/svg" xmlns:xlink="http://www.w3.org/1999/xlink" x="0px" y="0px"
	 viewBox="0 0 250 250" enable-background="new 0 0 250 250" xml:space="preserve">
<g>
	<path d="M212,131c-0.1,21.7-5.9,48-20,72.1c-9,15.4-20.5,28.6-36.5,36.8c-25.7,13.2-50.2,9.9-72.7-7.6
		c-17.3-13.3-28.1-31.4-35.4-51.6c-8.8-24.1-11.2-49-8.5-74.5c2.6-23.8,9.7-46.1,23.1-66c9.6-14.3,21.6-26.1,37.8-32.7
		c24.3-10,46.7-5.7,67.1,10.1c17.3,13.4,28.1,31.5,35.6,51.8C209.1,87.3,212,105.9,212,131z M170.1,112.7c2.4-1.7,3.7-4,2.7-6.9
		c-0.4-1.2-0.5-2,0.2-3.2c0.5-0.8,0.2-2.4-0.4-3.3c-0.4-0.6-2-1-2.7-0.8c-0.8,0.3-1.4,1.5-1.9,2.4c-0.2,0.3-0.2,0.8-0.2,1.2
		c-2.6-0.9-5.1-2.5-7.5-2.2c-2.4,0.2-4.6,2.3-7,3.5c-6-6.1-11.8-7.8-17.9-4.9c-7,3.2-9.4,9.3-8.1,20.3c-4.8-2.4-5.2-2.8-6.9-7.7
		c-2-5.7-8.1-8.9-13.3-6.3c-2.8,1.4-4.7,0.7-6.9-0.7c0.3-1.9,0.6-3.8,0.9-5.8c5-0.9,7.5-3,8.3-6.7c0.7-3.7-0.7-7.3-3.7-9
		c-3.1-1.9-6.2-1.3-10.2,1.8c-9.5-7.5-17-7.3-26.1,0.9c-0.3,0.3-0.7,0.7-1,0.7c-4,0.2-6.9,2.3-9.2,5.9c-1.6-4.6-3.8-8.3-8-10.7
		c-0.3,0.8-0.5,1.5-0.7,2.1c-4.2,15.5-5.8,31.3-5.3,47.3c0.5,16.4,3.3,32.4,9,47.8c6.9,18.6,16.9,35.1,32.6,47.7
		c10.6,8.4,22.5,13.6,36.2,14c16.7,0.5,30.8-5.7,43.1-16.5c15.5-13.7,25.2-31.1,31.5-50.6c2.3-6.9,2.2-7-4.2-10.4
		c0.8-0.2,1.7-0.3,2.5-0.6c2.3-0.9,3.5-3.6,2.8-6c-0.7-2.5-2.9-3.9-5.3-3.5c-2.5,0.4-4,2.6-3.9,5.3c0.1,2.7,1.9,3.9,4,4.9
		c-8.6-1.6-14.1,2.1-17.1,10.2c-0.9-1.6-1.5-2.8-2.4-3.9c-1.4-1.8-1.3-3.6-1-5.8c0.4-3.9,0.1-7.9,0.1-11.8c0-1.5,0-3,0.5-4.3
		c1.9-4.4,2.3-9.2-1.1-12.4c-3.3-3.2-3.1-6.1-2.1-9.7c0.1-0.4,0.2-0.9,0.2-1.3C170.5,119.9,170.3,116.3,170.1,112.7L170.1,112.7z
		 M158.8,89.7c0-4.7-3.4-8.3-7.9-8.2c-4.3,0.1-7.7,3.6-7.7,8.1c0,4.6,3.4,8.3,7.8,8.3C155.5,98,158.8,94.5,158.8,89.7z M94,67.4
		c0.1,4.7,3.6,8.3,8,8.2c4.2-0.1,7.6-3.7,7.6-8.3c0-4.6-3.6-8.4-7.9-8.4C97.4,59,93.9,62.8,94,67.4z M89.6,53.5c0-4.1-3-7.3-6.9-7.3
		c-4,0-6.9,3.3-6.8,7.5c0.1,4.1,3.1,7.2,7,7.1C86.7,60.8,89.7,57.5,89.6,53.5z M109.6,41.6c-3.6,0-6,2.5-6.1,6.3
		c0,3.7,2.5,6.5,5.9,6.5c3.3,0.1,6.1-2.8,6.2-6.4C115.6,44.4,113,41.6,109.6,41.6z M163,86c0,3,2.2,5.5,5,5.6
		c2.8,0.1,5.1-2.3,5.2-5.3c0-3-2.1-5.5-5-5.5C165.2,80.6,163,82.9,163,86z M187.4,144.7c2.5-0.4,3.4-1.5,3.4-3.2
		c0-1.6-0.7-2.9-2.6-3c-1.9-0.1-3.1,1.1-2.8,2.9C185.6,142.6,186.7,143.7,187.4,144.7z M181,59c-1.8-1.3-2.8-2.5-3.9-2.7
		c-1.7-0.3-2.7,1-2.7,2.7c0,1.8,1,3.2,2.8,2.9C178.3,61.7,179.3,60.4,181,59z M98.6,43.5c1.1-1.6,2.2-2.5,2.2-3.3
		c0-0.8-1.3-2.2-1.8-2.1c-0.9,0.2-2.2,1.2-2.3,2C96.5,40.8,97.6,41.8,98.6,43.5z"/>
	<path d="M11.8,250c-2.9-1.5-5.6-2.9-8.5-4.5c2.1-4.7,4.2-9.2,6.3-13.8c4.7-10.3,9.4-20.6,14.2-30.9c0.7-1.6,0.7-2.8,0-4.4
		c-6.7-14.4-13.3-28.9-20-43.4c-0.8-1.7-0.8-3.1,0-4.9c6.8-14.7,13.5-29.4,20.3-44.1c0.8-1.7,0.9-3.1,0.1-4.8c-7-15-13.8-30-20.8-45
		c-0.9-1.9-0.8-3.4,0-5.3c7.2-15.5,14.3-31,21.4-46.5C25.1,1.7,25.5,1,26,0c2.9,1.5,5.6,2.9,8.5,4.4c-3,6.6-6,13.2-9,19.7
		c-3.9,8.5-7.8,17-11.7,25.5c-0.7,1.5-0.7,2.6,0,4.1c7,15.2,13.9,30.4,21,45.5c0.8,1.7,0.8,3.1,0,4.8c-6.9,14.8-13.6,29.6-20.4,44.3
		c-0.8,1.7-0.7,3,0.1,4.6c6.7,14.5,13.4,29.1,20.1,43.6c0.7,1.5,0.7,2.6,0,4.1c-7.3,15.8-14.6,31.6-21.8,47.4
		C12.4,248.7,12.1,249.2,11.8,250z"/>
	<path d="M215.4,4.4c2.9-1.5,5.6-2.9,8.5-4.4c1.3,2.9,2.6,5.6,3.9,8.3c6.3,13.8,12.6,27.5,19,41.3c0.7,1.5,0.7,2.6,0,4.1
		c-7.1,15.2-14,30.5-21.1,45.8c-0.7,1.5-0.8,2.8,0,4.4c6.8,14.7,13.5,29.4,20.3,44.1c0.9,2,0.9,3.6-0.1,5.6
		c-6.7,14.3-13.2,28.6-19.8,42.9c-0.8,1.6-0.8,3,0,4.6c6.5,13.9,12.8,27.8,19.2,41.8c0.4,0.9,0.8,1.7,1.2,2.7
		c-2.9,1.5-5.6,2.9-8.5,4.5c-3-6.4-5.9-12.7-8.7-19c-4.7-10.1-9.3-20.3-14-30.4c-0.7-1.4-0.6-2.5,0-3.8
		c6.8-14.6,13.4-29.3,20.2-43.9c0.7-1.6,0.7-2.8,0-4.4c-6.8-14.7-13.5-29.4-20.3-44.1c-0.9-1.9-1-3.4-0.1-5.3
		c7-15.1,13.9-30.2,20.9-45.3c0.7-1.6,0.7-2.8,0-4.4c-6.5-14-12.9-28-19.3-42C216.3,6.5,215.9,5.6,215.4,4.4z"/>
	<path d="M83.3,194.7c0-5.4,1.1-10.6,3.5-15.4c0.3-0.6,1.4-1.2,2.2-1.2c24-0.1,48-0.1,72,0c0.8,0,2,0.8,2.3,1.5
		c2.2,4.7,3.3,9.6,3.4,15.1C138.9,194.7,111.3,194.7,83.3,194.7z"/>
	<path d="M166.5,200.2c-0.3,5.6-1.7,11-3.8,16.1c-0.2,0.5-1.6,0.8-2.4,0.8c-7.8,0.1-15.6,0-23.4,0c-15.7,0-31.4,0-47.1,0
		c-1.9,0-2.9-0.5-3.3-2.3c-1.1-4.8-2.4-9.5-3.7-14.6C111.1,200.2,138.7,200.2,166.5,200.2z"/>
	<path d="M102,125.5c-0.2,4.3-0.6,9.6-3.5,14.3c-3.3,5.3-8.4,5.8-12.7,1.1c-4.6-5-6.4-11.2-7.1-17.8c-0.6-5.3-0.5-10.7,1.5-15.9
		c1.4-3.6,3.1-7.1,7.4-7.6c4.3-0.5,6.8,2.4,8.9,5.6C100.3,111.1,101.6,117.7,102,125.5z"/>
	<path d="M147.7,131c2.5,0.2,5.1,0.5,7.6,0.6c1.3,0.1,2.7,0.1,3.8-0.4c3.2-1.5,6.3-1.6,9.8,0.1c-1.5,4.7-3.5,8.9-7.7,11.6
		c-3.3,2.2-7.3,1.5-9.5-2.2C149.9,137.8,149,134.2,147.7,131C147.7,130.9,147.7,131,147.7,131z"/>
	<path d="M147.1,126.8c0.6-4.1,0.9-8.2,1.9-12.2c0.9-3.5,2.5-6.7,3.8-10c1.6,1.1,2.6,1.9,3.7,2.6c2.5,1.6,2.8,4.9,0.7,7.2
		c-0.8,0.9-1.5,2-1.9,3.1C153.8,121.7,151.6,125.3,147.1,126.8L147.1,126.8z"/>
	<path d="M170.1,112.6c-1.4-0.1-3.2,0.2-4.2-0.5c-1.3-1.1-2.5-2.9-2.8-4.5c-0.4-2.3,1.1-4,3.4-5.2
		C168.7,105.6,170.4,108.8,170.1,112.6C170.1,112.7,170.1,112.6,170.1,112.6z"/>
	<path d="M147.1,126.8c0.2,1.4,0.4,2.8,0.6,4.2c0,0,0-0.1,0-0.1c-0.9-0.1-1.9-0.4-2.7-0.2c-2.1,0.6-3.4-0.3-4.3-1.6
		C142.8,128.4,145,127.6,147.1,126.8C147.1,126.8,147.1,126.8,147.1,126.8z"/>
</g>
</svg>
