<?xml version="1.0" encoding="utf-8"?>
<!-- Generator: Adobe Illustrator 23.0.1, SVG Export Plug-In . SVG Version: 6.00 Build 0)  -->
<svg version="1.0" id="Layer_1" xmlns="http://www.w3.org/2000/svg" xmlns:xlink="http://www.w3.org/1999/xlink" x="0px" y="0px"
	 viewBox="0 0 250 250" enable-background="new 0 0 250 250" xml:space="preserve">
<g>
	<path d="M13.2,112.3c5.1-5.8,10-11.5,15.2-17.4c6.5,5.8,12.8,11.5,19.2,17.2c0.2-0.1,0.3-0.1,0.5-0.2c-3-13.5-6-27-9.1-40.9
		C28.7,75.6,18.6,80,8,84.8c0.3-1.2,0.4-2,0.6-2.8c4.7-17.8,9.5-35.6,14.2-53.5c0.5-1.8,1.2-2.8,3.1-3.4
		c26.9-8.2,53.8-16.5,80.7-24.8c1.7-0.5,3.1-0.4,4.7,0.5c28,15.5,56.1,31,84.1,46.5c1,0.6,2,1.5,2.5,2.5
		c14.5,25.4,28.9,50.8,43.3,76.2c0.6,1.1,0.7,2.9,0.4,4.2c-7.4,33.2-15.1,66.4-22.3,99.7c-1,4.8-2.8,6.6-7.7,7.3
		c-26.1,4-52.1,8.4-78.2,12.7c-0.3,0.1-0.7,0-1.3,0c-11.4-34.1-22.9-68.3-34.3-102.5c-0.2,0-0.4,0-0.5-0.1c-3,12.4-5.9,24.9-9,37.6
		C63.3,160.7,38.4,136.6,13.2,112.3z M88.1,76.7C88,78.3,88,79.1,88,80c0,8.7-0.1,17.3,0.1,26c0,1.4,0.6,3.1,1.6,4.2
		c18.6,21.7,37.4,43.3,56,65c1.1,1.3,2.3,1.7,3.9,1.7c15.1,0.1,30.2,0.2,45.3,0.3c2.2,0,4.5,0,6.7,0c-0.7-0.9-1.5-1.2-2.3-1.4
		c-16.3-5.3-32.6-10.5-48.8-15.9c-1.4-0.5-2.8-1.5-3.7-2.7c-18.3-25-36.5-50.1-54.8-75.1C90.9,80.5,89.7,78.9,88.1,76.7z M77.5,27.4
		c-0.1-0.1-0.2-0.3-0.3-0.4c-9.9,4.1-19.7,8.3-29.8,12.5c4.6,15.2,9.2,30.2,13.8,45.1c0.6-0.8,0.8-1.6,0.8-2.4
		c0.4-10.2,0.9-20.4,1.2-30.7c0.1-2.6,0.8-4.9,2.4-7.1C69.7,38.9,73.5,33.1,77.5,27.4z"/>
	<path d="M30.8,164.6c8.4,5.5,16.9,10.9,25.3,16.4c14.2,9.2,28.4,18.5,42.7,27.6c1.8,1.2,2.6,2.4,2.8,4.6c0.7,9.3,1.6,18.6,2.4,28
		c0.1,1.3,0.1,2.6,0.2,4.5c-24.9-27.2-49.3-53.9-73.8-80.6C30.5,164.9,30.6,164.8,30.8,164.6z"/>
</g>
</svg>
