<?xml version="1.0" encoding="utf-8"?>
<!-- Generator: Adobe Illustrator 23.0.1, SVG Export Plug-In . SVG Version: 6.00 Build 0)  -->
<svg version="1.0" id="Layer_1" xmlns="http://www.w3.org/2000/svg" xmlns:xlink="http://www.w3.org/1999/xlink" x="0px" y="0px"
	 viewBox="0 0 250 250" enable-background="new 0 0 250 250" xml:space="preserve">
<g>
	<path d="M95,250c0-18,0-36.1,0-54.1c0-7.8-1.1-15.5-4.4-22.7c-5-10.8-13.6-16.5-25.3-17.7c-0.4,0-0.8-0.1-1.3-0.2
		c-0.1,0-0.2-0.1-0.4-0.2c0.6-3,2.3-5.3,4.6-7.3c5.7-4.8,12.5-6.9,19.5-8.6c14.4-3.5,29.1-4,43.9-3.6c12.5,0.3,25,1.4,37.1,5.1
		c5.4,1.7,10.7,3.9,14.6,8.3c1.2,1.3,2,3,3.2,4.8c-3,0.4-5.4,0.5-7.8,0.9c-12.3,2.2-18.8,10.4-21.5,21.9c-1.3,5.6-2,11.5-2.1,17.3
		c-0.3,18.7-0.1,37.4-0.1,56.1C134.9,250,115,250,95,250z"/>
	<path d="M164.9,205.2c0-9.8-0.5-19.4,2.7-28.8c3-8.6,8.1-12.3,17.1-12.3c7.5,0,14.1-2.8,19.9-7.4c6.1-4.8,7.9-12.5,5-20.5
		c-3-8.2-8.9-14.1-15.7-19.2c-14-10.6-29.9-16.7-47-19.9c-22.7-4.2-45.2-3.3-67.1,4.4c-12,4.2-22.9,10.2-31.6,19.6
		c-4.9,5.3-8.6,11.2-9,18.6c-0.5,9.9,6.4,20,16.2,23.8c2.3,0.9,4.7,1.4,7.1,1.6c12.4,1.3,19.1,7.1,21.2,19.4
		c1.2,6.7,1.1,13.6,1.7,21c-1.7-0.7-2.8-1-3.7-1.5c-31.8-16-51.6-41.5-58.3-76.4c-6.7-34.7,1.6-66,24.9-92.7
		C69.6,10.7,97-1.3,129.4,0.1c42.1,1.8,78.9,29.2,92.5,69.2c14.4,42.2,6.4,80.3-23.7,113.3c-8.6,9.5-19.2,16.6-30.8,22
		c-0.5,0.2-1.1,0.5-1.6,0.7C165.6,205.3,165.4,205.2,164.9,205.2z M45.8,57.6c1.7,2.7,3.4,5.4,4.7,7.5c7.1-2.8,13.9-6,21-8.2
		c7.1-2.2,14.5-2.3,22.4-0.3C82.1,63.1,71,69.2,59.8,75.3c1.7,3,3.2,5.8,4.8,8.8c17.8-9.7,35.4-19.3,53.1-29
		C91.6,40.9,67.6,43.3,45.8,57.6z M202.6,57.6c-18.7-14.7-54.2-15.9-71.7-2.4c17.6,9.6,35.2,19.2,52.9,28.8c1.7-3,3.2-5.8,4.8-8.8
		c-11.3-6.2-22.5-12.3-34.2-18.7c16.3-3.4,30,1.4,43,9.3C199.2,63,200.8,60.4,202.6,57.6z"/>
</g>
</svg>
