<?xml version="1.0" encoding="utf-8"?>
<!-- Generator: Adobe Illustrator 23.0.1, SVG Export Plug-In . SVG Version: 6.00 Build 0)  -->
<svg version="1.0" id="Layer_1" xmlns="http://www.w3.org/2000/svg" xmlns:xlink="http://www.w3.org/1999/xlink" x="0px" y="0px"
	 viewBox="0 0 250 250" enable-background="new 0 0 250 250" xml:space="preserve">
<g>
	<path d="M156.4,120.5c3.5-8.6,7.1-17.1,10.4-25.7c2.5-6.6,5.2-13,10.9-17.5c1.3-1,2.7-2,4.1-2.8c15.5-8,31.1-15.9,46.6-23.8
		c7.5-3.8,14.1-1.5,17.9,6c0.7,1.3,1.4,2.7,2.1,4c3.4,6.6,1.1,13.7-5.5,17.1c-10.4,5.4-20.9,10.7-31.3,16c-4.1,2.1-8.2,4.1-12.2,6.3
		c-1.1,0.6-2.2,1.8-2.7,2.9c-6.2,14.9-12.2,29.9-18.3,44.8c-1.3,3.3-3.5,5.7-6.7,7.5c-2.2,1.2-4,3.2-6.1,4.6
		c-19.5,13.7-39,27.4-58.5,41.1c-0.7,0.5-1.4,1-2.4,1.7c0.9,0.5,1.7,0.9,2.4,1.3c8.5,4,17.1,7.9,25.6,12.1c2,1,3.3,0.9,5.2-0.4
		c11.4-8.1,23-16.1,34.5-24.2c6.9-4.8,13.8-3.6,18.6,3.3c2.3,3.3,5.1,6.3,5.1,10.8c0,4.4-1.7,7.9-5.2,10.4
		c-14.9,10.5-29.8,20.9-44.7,31.2c-1.3,0.9-3.1,1.5-4.6,1.7c-5.8,0.4-11.4-0.1-16.7-2.7c-14.9-7.2-30.1-13.9-45-21.2
		c-3.1-1.5-6.4-3.8-8.3-6.6c-8.9-13.4-17.3-27-25.8-40.6c-1.9-3-2-6.2-1.5-9.7c1.8-13.4,3.4-26.8,5.1-40.2c0.3-2-0.3-3.5-1.5-5
		c-9.4-11.5-18.6-23.1-28.1-34.5c-3.2-3.9-4.9-7.9-3.5-12.9c1.6-5.4,10-12.1,15.6-12.6c4.6-0.4,8.2,1.6,11,5.2
		c10.7,13.3,21.5,26.6,32.3,40c0.6,0.7,1.1,1.4,1.7,2c3.9,3.6,4.8,8,4,13c-1.1,7.6-2,15.2-3,23.4c14-9.8,27.6-19.3,41.3-29
		c-0.9-1.5-1.7-2.9-2.5-4.4c-5.9-10.1-11.7-20.3-17.8-30.4c-2.9-4.8-4.1-10-4.2-15.4c-0.2-18.3-0.1-36.6,0-54.8
		c0-7.1,5.3-12.3,12.4-12.4c1.7,0,3.4,0,5,0c8,0,13.2,5.2,13.2,13.3c0,17,0,33.9,0.1,50.9c0,1.8,0.6,3.8,1.5,5.4
		c8,13.9,16.2,27.7,24.2,41.7c1.7,3,3,6.3,4.5,9.4C155.9,120.6,156.1,120.5,156.4,120.5z"/>
	<path d="M62.4,219c0,17-14.2,31-31.3,31C14,250,0,235.9,0,218.7c0-17.1,14.1-31.2,31.2-31.2C48.4,187.5,62.4,201.7,62.4,219z"/>
</g>
</svg>
