<?xml version="1.0" encoding="utf-8"?>
<!-- Generator: Adobe Illustrator 23.0.1, SVG Export Plug-In . SVG Version: 6.00 Build 0)  -->
<svg version="1.0" id="Layer_1" xmlns="http://www.w3.org/2000/svg" xmlns:xlink="http://www.w3.org/1999/xlink" x="0px" y="0px"
	 viewBox="0 0 250 250" enable-background="new 0 0 250 250" xml:space="preserve">
<g>
	<path d="M129.5,117.4c3.3-18.2,33.5-27.9,46.4-13.4c2.6-2.7,5.1-5.4,8.1-8.5c-8.5-1.8-14.5-6.2-19.1-12.5
		c-4.6-6.2-7.1-13.1-5.9-21.5c-4.4-0.6-8.6-1.1-13.3-1.7c0,2.6-0.2,4.8,0,7.1c1,10.3-4,17.3-12.1,22.7c-8.8,5.9-18.7,9.1-28.9,11.1
		c-24.1,4.7-48,4.4-71.8-2.3c-8.1-2.3-15.8-5.6-22.5-10.9c-6.2-5-9.6-11.2-9.4-19.4c0.3-11.3,0.2-22.6,0.1-33.9
		c-0.1-5.9,2.1-10.8,6.2-15C14,12.4,22.5,8.7,31.5,5.9C50.4,0.1,69.8-1,89.4,0.8c12.5,1.2,24.7,3.8,36.2,9
		c5.7,2.6,11.1,5.9,15.2,10.8c3.2,3.9,5,8.2,4.9,13.3c-0.1,5.4,0,10.7,0,15.9c6.1,1,12,2,17.9,3c0.6,0.1,1.4-0.2,2-0.5
		c4.8-2.8,9.9-2.8,14.8-0.6c11.7,5,18.6,14,20.2,26.7c0.6,5-0.8,9.6-4.5,13.3c-0.5,0.5-1,1.3-1.2,2c-2.7,7.9-7.8,13.9-14.5,18.7
		c-0.8,0.6-1.8,1.4-2,2.2c-2,8.7-8.1,13.6-15.8,16.9c-8,3.3-16.2,4.1-24.3,0.3c-1.6-0.7-3.2-1.7-4.3-3c-1.5-1.9-3.3-2.2-5.5-2.1
		c-4,0.2-8.1,0-12.4,0c-0.4,7.1-3.4,12.5-8.5,16.6c-8.2,6.6-17.4,9.5-27.9,7.2c-0.4-0.1-0.8-0.2-1.3-0.4c-4.3-1.5-4.3-1.5-6.5,2.7
		c-1,1.9-1.8,4-2.7,6c-0.4,0.9-0.5,1.8-0.8,2.7c13.4,4,24.4,21.2,20.5,37c5.1,0.8,10.2,1.6,15.5,2.4c0-6.9,0.2-13.2-0.1-19.5
		c-0.4-8,3.1-13.9,9-18.8c7.9-6.4,17.2-10,27-12.3c26.9-6.4,53.7-6.1,80.2,2.2c7.1,2.2,13.8,5.4,19.6,10.2c5.9,4.9,9.1,10.9,9,18.8
		c-0.3,10.9-0.2,21.9,0,32.8c0.2,7.6-2.8,13.5-8.4,18.3c-7.3,6.2-15.9,9.8-25,12.2c-29,7.5-57.9,7.2-86.4-2.8
		c-6.4-2.3-12.4-5.5-17.5-10.2c-4.7-4.4-7.7-9.6-7.4-16.3c0.1-1.7,0-3.5,0-4.5c-7.3-1.6-14.1-3.2-20.9-4.7c-0.5-0.1-1.1-0.1-1.5,0.1
		c-7.7,3.6-14.4,1.1-20.3-3.9c-7.9-6.8-12.3-15.4-11.8-26c0.2-5.6,2.4-10.2,7.3-13.4c0.6-0.4,1.2-1.3,1.4-2c1.6-7.1,4.7-13.4,9-19.3
		c0.4-0.5,0.6-1.3,0.5-1.9c-1.5-6.7,0.9-12.3,5.6-16.8c8.5-8.3,18.6-11.9,30.4-9.3c1.5,0.3,3.2,0.9,4.3,1.8c2.4,2.1,5,1.9,7.9,1.8
		C120.6,117.3,125,117.4,129.5,117.4z M136.2,31.7c-0.8-1.3-1.7-3.7-3.3-5.5c-4.5-5-10.4-7.8-16.7-9.9c-25.9-8.6-52.1-8.8-78.4-2.2
		c-7.8,1.9-15.3,4.8-21.6,10c-1.7,1.4-3.2,3.1-4.3,5c-2.3,3.9-1,8,3.2,11.9c2.7,2.6,5.4,4.4,9.1,1.7c0.7-0.5,1.6-0.7,2.4-1
		c16.6-6.2,33.9-7.9,51.5-7.4c15.5,0.4,30.8,2.6,45.1,8.8c3.2,1.4,5.1,0.9,7.4-1.2C133.4,39.5,135.9,36.9,136.2,31.7z M177.3,180.1
		c3,0.1,6.7,0.2,10.4,0.5c13.4,0.9,26.6,3.2,39,8.6c2.7,1.2,4.6,1.1,6.5-0.9c0.4-0.4,0.9-0.8,1.4-1.2c6.2-5.7,6.1-10.9-0.2-16.5
		c-4.6-4.1-10.2-6.6-16-8.6c-15.3-5.3-31.1-6.8-47.2-6.3c-14.4,0.5-28.6,2.6-42,8.4c-5,2.2-9.7,4.8-13.1,9.1
		c-3.1,3.9-3,7.8,0.1,11.6c0.9,1.1,2,2,3,3c2.2,2.2,4.2,2.8,7.6,1.3C142.6,182.2,159.6,180.4,177.3,180.1z M32.3,49.8
		c14.4,8.4,71.3,8.3,82-0.1C86.9,41.9,59.8,41.8,32.3,49.8z M135.1,195.9c22.4,8.3,59.5,8.6,82.3,0
		C190.2,187.8,163,187.8,135.1,195.9z M80.2,191.4c-0.8-8.4-4.2-15-11.3-19.2c-5.5-3.3-9.7-0.9-9.5,5.6c0.2,8.2,4,14.6,10.9,19.1
		c1.1,0.7,2.4,1.2,3.7,1.4c2.6,0.6,4.6-0.5,5.4-3C79.9,194,80,192.6,80.2,191.4z M190.9,79.9c0-8.1-7.6-17.8-15.5-19.7
		c-4.5-1.1-7.1,0.9-7.1,5.4c-0.1,8.2,7.2,17.8,15.2,19.9C188.3,86.8,190.9,84.7,190.9,79.9z M148.4,124.6c8.2-0.3,14.5-2.5,19-8.4
		c2.8-3.8,1.7-7.1-2.7-8.7c-4.9-1.8-9.7-1.1-14.5,0.6c-3.9,1.4-7.5,3.6-9.8,7.2c-2.2,3.5-1.3,6.6,2.6,8.1
		C144.9,124.2,147.1,124.4,148.4,124.6z M86,141.6c7.4-0.2,14.8-3.8,18.4-8.9c3.5-4.9,1.8-9-4.1-9.8c-7.8-1-14.4,1.5-19.9,7
		c-2.2,2.1-4.1,4.8-2.8,8c1.3,3.1,4.4,3.4,7.4,3.6C85.4,141.5,85.8,141.6,86,141.6z"/>
</g>
</svg>
