<?xml version="1.0" encoding="utf-8"?>
<!-- Generator: Adobe Illustrator 23.0.1, SVG Export Plug-In . SVG Version: 6.00 Build 0)  -->
<svg version="1.0" id="Layer_1" xmlns="http://www.w3.org/2000/svg" xmlns:xlink="http://www.w3.org/1999/xlink" x="0px" y="0px"
	 viewBox="0 0 250 250" enable-background="new 0 0 250 250" xml:space="preserve">
<g>
	<path d="M158.9,0c4.8,0.8,9.6,1.7,14.4,2.5c9.3,1.7,18.6,3.7,27.3,7.6c1.5,0.7,3,1.5,4.4,2.4c5.8,3.8,7.1,7.9,4.6,14.4
		c-1.9,5-5.4,8.8-9.4,12.1c-9.4,7.7-20.4,12.6-31.7,16.8C148,63.3,126.7,68,105.1,71.1c-16.4,2.4-32.9,4.2-49.5,4.1
		c-9.2-0.1-18.3-0.4-27-3.7c-2.8-1-5.6-2.7-7.7-4.7c-4.8-4.7-3.4-11.4,2.8-14c6.9-2.9,14.2-3,21.5-2.9c5.4,0,10.8,0.6,16.2,1
		c0.4,0,0.8,0.2,0.5-0.3c-2.4,2.9-4.8,5.8-7.4,8.5c-0.5,0.5-1.7,0.4-2.6,0.5c-6.8,0.1-13.5,0.1-20.3,0.3c-1.4,0-2.7,0.6-4.1,0.9
		c-0.1,0.3-0.1,0.7-0.2,1c3.2,1,6.4,2.4,9.7,3.1c11.3,2.4,22.9,2.2,34.4,2.2c19.5-0.1,38.8-2.3,57.9-6.3
		c17.6-3.6,35.2-7.6,51.6-15.3c6-2.8,11.8-6.3,17.3-10c2.8-1.9,5.1-5,7-7.9c3.9-6,3-10-3.3-13.3c-4.4-2.3-9-4.2-13.8-5.6
		c-13.4-4.1-27.2-6.2-41-8.2c-0.8-0.1-1.6-0.3-2.5-0.5C149.5,0,154.2,0,158.9,0z"/>
	<path d="M38.5,135.7c13.4,0,26.5,0.1,39.6,0c19-0.1,38.1-0.1,57.1-0.5c14.3-0.3,28.5-1.3,42.8-2.1c5.6-0.3,11.1-1.2,16.6-1.8
		c1.2-0.1,2.1-0.3,2.4,1.3c6.1,25.9,5.5,51.4-5.7,75.9c-7.9,17.2-20,30.5-38.1,37.4c-19.1,7.2-37.6,4.7-55.3-4.6
		c-19.4-10.2-33.4-25.9-43.7-45c-10.1-18.6-15.3-38.6-15.8-59.7C38.3,136.2,38.4,135.8,38.5,135.7z M72.2,182.4
		c1.3,1.8,2.2,3.5,3.5,4.9c5.1,5.8,11.3,4.7,13.6-2.7c1.1-3.6,1.2-7.6,1.4-11.4c0.1-1.3,0.3-2.1,1.5-2.8c2.3-1.2,4.5-2.6,6.8-4.1
		c-1.8-3.1-3.5-5.9-5.3-8.9c-11.1,6.6-22,13-32.9,19.5c1.8,3.1,3.5,5.9,5.3,8.8C68.4,184.6,70.3,183.5,72.2,182.4z M170.2,176.8
		c1-3.4,2-6.6,2.9-9.9c-12.3-3.7-24.3-7.4-36.6-11.1c-1,3.4-2,6.6-3,9.9c2.5,0.8,4.8,1.5,7,2.1c1.7,0.4,2.6,1.3,3.2,3.1
		c1.4,4.5,3.5,8.6,7.1,11.8c5.1,4.6,10.6,3.2,12.8-3.4c0.4-1.3,0.8-2.7,1.1-4.1C166.6,175.7,168.2,176.2,170.2,176.8z"/>
	<path d="M185,102c-47.7,4.4-95.2,3.6-143.6,3c2.7-6.6,5.1-12.6,7.6-18.5c0.3-0.6,1.7-1,2.5-1c7.8-0.3,15.6,0,23.3-0.7
		c13.4-1.2,26.8-2.5,39.9-4.8c14.7-2.6,29.3-6.6,43.9-9.9c0.8-0.2,1.9-0.1,2.4,0.4c9.4,8.8,17.3,18.7,23.5,30.1
		C184.8,100.8,184.8,101.1,185,102z"/>
	<path d="M16.9,124.6c0-3.4,0-6.4,0-9.7c3.5,0,7,0,10.4,0c8.8,0.1,17.6,0.4,26.4,0.5c20,0.1,39.9,0.6,59.9,0.2
		c20.5-0.4,41.1-1.2,61.6-2.5c13.5-0.8,26.9-2.6,40-6.4c2.8-0.8,5.4-2.2,8.7-3.6c-1.6-1.6-2.5-2.8-3.7-3.7
		c-6.5-5.1-13.9-8.6-21.7-10.7c-8-2.2-14.2-6-18.3-13.2c-0.7-1.1-1.7-2.1-3.1-3.7c1.8,0.5,2.9,0.7,3.9,1
		c12.9,3.5,25.7,7.4,37.5,13.9c3.8,2.1,7.5,4.7,10.6,7.7c6.4,6.2,5.3,13.6-2.3,18.1c-7,4.1-14.8,5.7-22.6,7.1
		c-19.4,3.4-39,4.6-58.6,5.1c-21.4,0.6-42.8,0.9-64.2,0.9c-19.4,0.1-38.8-0.3-58.1-0.5C21.1,124.9,19.1,124.7,16.9,124.6z"/>
	<path d="M126.9,50.7c-16.7,3.5-33.6,5.3-50.6,6C92.2,47,109.1,45.4,126.9,50.7z"/>
	<path fill="#FFFFFF" d="M72.2,182.4c-2,1.1-3.8,2.2-6,3.5c-1.8-2.9-3.4-5.7-5.3-8.8c11-6.5,21.8-12.9,32.9-19.5
		c1.7,2.9,3.4,5.8,5.3,8.9c-2.4,1.4-4.6,2.8-6.8,4.1c-1.2,0.7-1.4,1.5-1.5,2.8c-0.3,3.8-0.3,7.8-1.4,11.4c-2.3,7.4-8.5,8.5-13.6,2.7
		C74.5,185.9,73.5,184.2,72.2,182.4z"/>
	<path fill="#FFFFFF" d="M170.2,176.8c-2-0.6-3.6-1-5.4-1.6c-0.4,1.4-0.7,2.8-1.1,4.1c-2.2,6.6-7.6,8-12.8,3.4
		c-3.6-3.2-5.7-7.3-7.1-11.8c-0.5-1.8-1.5-2.6-3.2-3.1c-2.3-0.6-4.5-1.3-7-2.1c1-3.3,2-6.5,3-9.9c12.2,3.7,24.3,7.4,36.6,11.1
		C172.1,170.2,171.2,173.4,170.2,176.8z"/>
</g>
</svg>
