<?xml version="1.0" encoding="utf-8"?>
<!-- Generator: Adobe Illustrator 23.0.1, SVG Export Plug-In . SVG Version: 6.00 Build 0)  -->
<svg version="1.0" id="Layer_1" xmlns="http://www.w3.org/2000/svg" xmlns:xlink="http://www.w3.org/1999/xlink" x="0px" y="0px"
	 viewBox="0 0 250 250" enable-background="new 0 0 250 250" xml:space="preserve">
<g>
	<path d="M37.8,124.8c0.1-25,4.8-48.9,15.8-71.4c8.1-16.7,19-31.2,34.6-41.7c24.8-16.8,54.5-15.4,78.2,3.6
		c17.1,13.6,28.3,31.4,35.4,51.8c15,43.1,13.8,85.8-4.8,127.6c-7.4,16.5-17.9,30.8-32.6,41.7c-25.6,18.9-56.3,18.3-81.2-1.6
		c-16.4-13.1-27.1-30.2-34.6-49.5C41.1,165.7,37.8,145.5,37.8,124.8z M162,197.8c-17-18.7-56.6-19.1-74.2-0.1
		c2.2,2.2,4.5,4.4,6.8,6.6c6.1-5.8,13.7-9,22.2-10.4c0.5,1.1,0.8,2.2,1.3,3.1c3.1,5.5,5.9,11.2,9.6,16.4c2.9,4.1,7.4,6.6,12.7,5.2
		c5.4-1.4,7.3-6,8.3-10.9c0.5-2.4,0.7-4.8,1.1-7.6c2.1,1.6,3.9,3,5.5,4.2C157.6,202.1,159.8,199.9,162,197.8z M110.9,134.6
		c-5.5-3.7-10.7-7.1-15.9-10.6c3.6-5.5,7.1-10.6,10.6-15.9c-2.8-1.9-5.4-3.5-8.1-5.3c-3.6,5.4-7.1,10.6-10.7,15.9
		c-5.5-3.6-10.7-7-16-10.5c-1.8,2.8-3.5,5.3-5.4,8c5.4,3.6,10.7,7.1,16,10.6c-3.6,5.5-7.1,10.6-10.6,16c2.8,1.9,5.4,3.6,8.1,5.3
		c3.6-5.4,7.1-10.6,10.6-15.9c5.5,3.6,10.7,7,16,10.5C107.3,139.9,109,137.3,110.9,134.6z M144.2,108c3.6,5.5,7.1,10.7,10.6,15.9
		c-5.5,3.6-10.6,7.1-15.9,10.6c1.9,2.8,3.6,5.4,5.4,8c5.4-3.5,10.6-7,16-10.5c3.6,5.4,7.1,10.6,10.6,15.9c2.8-1.9,5.4-3.6,8.1-5.4
		c-3.6-5.5-7.1-10.6-10.6-15.9c5.4-3.6,10.6-7.1,16-10.6c-1.9-2.8-3.6-5.4-5.4-8c-5.5,3.6-10.7,7-16,10.5
		c-3.6-5.4-7.1-10.6-10.7-15.9C149.6,104.4,147,106.1,144.2,108z"/>
	<path d="M137.8,209.5c-5.6-4.2-7.9-10-11-16.6c4.6,0.9,8.4,1.6,12.2,2.4c0.4,0.1,0.9,0.7,0.9,1.1C140,200.7,140,205,137.8,209.5z"
		/>
</g>
</svg>
